<?xml version="1.0" encoding="UTF-8"?>
<!DOCTYPE svg PUBLIC "-//W3C//DTD SVG 1.1//EN" "http://www.w3.org/Graphics/SVG/1.1/DTD/svg11.dtd">
<svg xmlns="http://www.w3.org/2000/svg" version="1.1" width="1500px" height="500px" style="shape-rendering:geometricPrecision; text-rendering:geometricPrecision; image-rendering:optimizeQuality; fill-rule:evenodd; clip-rule:evenodd" xmlns:xlink="http://www.w3.org/1999/xlink">
<g><path style="opacity:0.995" fill="#53c000" d="M 1141.5,362.5 C 1141.5,362.833 1141.5,363.167 1141.5,363.5C 1137.76,369.243 1132.76,374.243 1126.5,378.5C 1117.55,387.719 1109.05,397.386 1101,407.5C 1080.8,434.027 1061.8,461.36 1044,489.5C 1043.31,493.021 1043.81,496.355 1045.5,499.5C 1024.83,499.5 1004.17,499.5 983.5,499.5C 982.634,495.114 980.301,491.614 976.5,489C 941.706,458.533 906.04,429.2 869.5,401C 850.861,388.732 830.528,380.899 808.5,377.5C 798.83,378.201 789.497,380.367 780.5,384C 771.659,387.922 762.992,392.088 754.5,396.5C 734.781,372.28 712.781,350.114 688.5,330C 682.106,327.641 675.773,324.974 669.5,322C 668.619,321.292 667.953,320.458 667.5,319.5C 709.339,292.403 752.672,267.57 797.5,245C 830.305,228.837 864.639,224.17 900.5,231C 908.773,232.869 916.773,235.536 924.5,239C 949.346,251.589 974.346,263.923 999.5,276C 1008.83,282 1018.17,288 1027.5,294C 1047.81,309.489 1068.48,324.489 1089.5,339C 1106.19,348.285 1123.53,356.119 1141.5,362.5 Z"/></g>
<g><path style="opacity:0.992" fill="#53c000" d="M 568.5,372.5 C 568.657,373.873 568.49,375.207 568,376.5C 536.404,419.931 497.904,455.931 452.5,484.5C 446.519,473.871 441.019,462.871 436,451.5C 419.495,409.49 402.161,367.823 384,326.5C 380.667,321.167 377.333,315.833 374,310.5C 369.167,305.667 364.333,300.833 359.5,296C 342.722,284.449 327.555,286.282 314,301.5C 299.095,318.629 287.762,337.962 280,359.5C 272.392,381.491 264.892,403.491 257.5,425.5C 254.774,425.264 252.441,426.097 250.5,428C 225.757,449.74 201.924,472.573 179,496.5C 178.517,497.448 178.351,498.448 178.5,499.5C 118.833,499.5 59.1667,499.5 -0.5,499.5C -0.5,493.833 -0.5,488.167 -0.5,482.5C 50.1621,423.667 104.162,367.834 161.5,315C 218.419,266.79 282.086,255.79 352.5,282C 362.66,286.91 372.326,292.577 381.5,299C 401.439,316.297 422.106,332.63 443.5,348C 464.807,358.821 486.474,368.821 508.5,378C 516.719,380.135 525.053,380.801 533.5,380C 545.418,378.583 557.084,376.083 568.5,372.5 Z"/></g>
<g><path style="opacity:0.994" fill="#52bf00" d="M 1499.5,447.5 C 1499.5,464.833 1499.5,482.167 1499.5,499.5C 1448.17,499.5 1396.83,499.5 1345.5,499.5C 1330.52,466.539 1313.69,434.539 1295,403.5C 1288.66,393.482 1281.82,383.816 1274.5,374.5C 1273.73,373.289 1272.89,373.289 1272,374.5C 1266.84,370.191 1262.68,365.191 1259.5,359.5C 1263.93,356.916 1268.27,354.082 1272.5,351C 1294.91,331.301 1318.58,313.301 1343.5,297C 1360.36,286.329 1378.36,283.662 1397.5,289C 1406.12,292.955 1413.62,298.455 1420,305.5C 1435.99,325.465 1449.99,346.798 1462,369.5C 1475.2,395.302 1487.7,421.302 1499.5,447.5 Z"/></g>
<g><path style="opacity:1" fill="#aafe6e" d="M 452.5,484.5 C 454.576,489.651 456.91,494.651 459.5,499.5C 378.5,499.5 297.5,499.5 216.5,499.5C 231.788,486.295 242.622,469.962 249,450.5C 252.137,442.255 254.971,433.922 257.5,425.5C 264.892,403.491 272.392,381.491 280,359.5C 287.762,337.962 299.095,318.629 314,301.5C 327.555,286.282 342.722,284.449 359.5,296C 364.333,300.833 369.167,305.667 374,310.5C 377.333,315.833 380.667,321.167 384,326.5C 402.161,367.823 419.495,409.49 436,451.5C 441.019,462.871 446.519,473.871 452.5,484.5 Z"/></g>
<g><path style="opacity:0.997" fill="#7ce432" d="M 667.5,319.5 C 667.953,320.458 668.619,321.292 669.5,322C 675.773,324.974 682.106,327.641 688.5,330C 712.781,350.114 734.781,372.28 754.5,396.5C 736.125,408.11 717.958,420.11 700,432.5C 685.998,422.078 670.832,413.578 654.5,407C 641.211,401.952 628.211,402.619 615.5,409C 601.615,416.209 589.448,425.709 579,437.5C 562.251,458.015 545.751,478.681 529.5,499.5C 506.167,499.5 482.833,499.5 459.5,499.5C 456.91,494.651 454.576,489.651 452.5,484.5C 497.904,455.931 536.404,419.931 568,376.5C 568.49,375.207 568.657,373.873 568.5,372.5C 579.545,354.26 593.878,339.094 611.5,327C 629.206,316.158 647.872,313.658 667.5,319.5 Z"/></g>
<g><path style="opacity:0.998" fill="#7be331" d="M 1259.5,359.5 C 1262.68,365.191 1266.84,370.191 1272,374.5C 1272.89,373.289 1273.73,373.289 1274.5,374.5C 1281.82,383.816 1288.66,393.482 1295,403.5C 1313.69,434.539 1330.52,466.539 1345.5,499.5C 1245.5,499.5 1145.5,499.5 1045.5,499.5C 1043.81,496.355 1043.31,493.021 1044,489.5C 1061.8,461.36 1080.8,434.027 1101,407.5C 1109.05,397.386 1117.55,387.719 1126.5,378.5C 1127.87,378.657 1129.21,378.49 1130.5,378C 1134.33,374.167 1138.17,370.333 1142,366.5C 1142.74,365.251 1142.57,364.251 1141.5,363.5C 1141.5,363.167 1141.5,362.833 1141.5,362.5C 1172.44,331.381 1207.1,326.881 1245.5,349C 1250.33,352.332 1254.99,355.832 1259.5,359.5 Z"/></g>
<g><path style="opacity:1" fill="#8fed29" d="M 1141.5,363.5 C 1142.57,364.251 1142.74,365.251 1142,366.5C 1138.17,370.333 1134.33,374.167 1130.5,378C 1129.21,378.49 1127.87,378.657 1126.5,378.5C 1132.76,374.243 1137.76,369.243 1141.5,363.5 Z"/></g>
<g><path style="opacity:1" fill="#aafe6e" d="M 983.5,499.5 C 832.167,499.5 680.833,499.5 529.5,499.5C 545.751,478.681 562.251,458.015 579,437.5C 589.448,425.709 601.615,416.209 615.5,409C 628.211,402.619 641.211,401.952 654.5,407C 670.832,413.578 685.998,422.078 700,432.5C 717.958,420.11 736.125,408.11 754.5,396.5C 762.992,392.088 771.659,387.922 780.5,384C 789.497,380.367 798.83,378.201 808.5,377.5C 830.528,380.899 850.861,388.732 869.5,401C 906.04,429.2 941.706,458.533 976.5,489C 980.301,491.614 982.634,495.114 983.5,499.5 Z"/></g>
<g><path style="opacity:1" fill="#7ce432" d="M 257.5,425.5 C 254.971,433.922 252.137,442.255 249,450.5C 242.622,469.962 231.788,486.295 216.5,499.5C 203.833,499.5 191.167,499.5 178.5,499.5C 178.351,498.448 178.517,497.448 179,496.5C 201.924,472.573 225.757,449.74 250.5,428C 252.441,426.097 254.774,425.264 257.5,425.5 Z"/></g>
</svg>
